<?xml version="1.0" standalone="no"?>
<!DOCTYPE svg PUBLIC "-//W3C//DTD SVG 20010904//EN"
 "http://www.w3.org/TR/2001/REC-SVG-20010904/DTD/svg10.dtd">
<svg version="1.0" xmlns="http://www.w3.org/2000/svg"
 width="1134.000000pt" height="1134.000000pt" viewBox="0 0 1134.000000 1134.000000"
 preserveAspectRatio="xMidYMid meet">

<g transform="translate(0.000000,1134.000000) scale(0.100000,-0.100000)"
fill="#000000" stroke="none">
<path d="M5335 11330 c-16 -4 -61 -8 -99 -9 -39 0 -108 -6 -155 -12 -171 -21
-348 -47 -406 -59 -22 -5 -67 -13 -100 -20 -33 -6 -79 -15 -102 -20 -24 -6
-64 -15 -90 -21 -68 -15 -192 -46 -233 -59 -14 -4 -45 -13 -70 -20 -60 -17
-340 -109 -365 -120 -11 -4 -74 -29 -140 -55 -66 -26 -139 -55 -162 -66 -24
-10 -64 -28 -90 -40 -71 -31 -279 -134 -353 -175 -36 -20 -90 -49 -120 -66
-30 -16 -66 -38 -81 -49 -15 -10 -30 -19 -33 -19 -10 0 -357 -233 -447 -301
-117 -87 -269 -210 -364 -293 -104 -91 -428 -413 -483 -479 -23 -29 -55 -65
-70 -82 -41 -44 -138 -165 -230 -287 -80 -105 -322 -462 -322 -474 0 -3 -9
-18 -19 -33 -11 -15 -33 -51 -49 -81 -17 -30 -46 -84 -66 -120 -40 -74 -144
-282 -174 -350 -11 -25 -29 -65 -40 -90 -11 -25 -41 -99 -67 -165 -26 -66 -51
-129 -56 -140 -11 -26 -99 -290 -110 -332 -5 -18 -13 -49 -19 -68 -33 -116
-37 -129 -60 -225 -38 -154 -78 -362 -101 -525 -41 -292 -52 -461 -52 -805 0
-344 10 -511 52 -805 30 -213 89 -497 140 -677 18 -61 32 -111 40 -143 12 -42
100 -306 110 -330 5 -11 30 -74 56 -140 26 -66 56 -140 67 -165 11 -25 29 -65
40 -90 30 -68 134 -276 174 -350 20 -36 49 -90 66 -120 16 -30 38 -66 49 -81
10 -15 19 -30 19 -33 0 -9 235 -359 300 -446 76 -102 213 -273 252 -315 15
-16 47 -53 70 -82 56 -68 382 -391 478 -473 41 -36 77 -67 80 -70 12 -13 164
-133 262 -208 105 -80 462 -322 474 -322 3 0 18 -9 33 -19 15 -11 51 -33 81
-49 30 -17 84 -46 120 -66 74 -41 282 -144 353 -175 26 -12 66 -30 90 -40 23
-11 96 -40 162 -66 66 -26 129 -51 140 -56 26 -11 290 -99 333 -110 17 -5 47
-13 65 -18 62 -19 112 -32 150 -42 104 -26 125 -31 165 -40 138 -30 307 -61
437 -80 290 -41 470 -53 810 -53 296 0 412 6 650 33 185 22 389 56 588 100 39
9 60 14 165 40 20 5 53 14 72 20 50 14 105 30 143 40 42 11 306 99 332 110 11
5 74 30 140 56 66 26 138 55 160 65 22 10 63 28 90 40 73 32 280 135 355 176
36 20 90 49 120 66 30 16 66 38 81 49 15 10 30 19 33 19 11 0 363 237 451 303
94 71 158 120 165 127 3 3 30 25 60 50 121 98 223 192 395 365 233 232 351
367 541 620 65 86 304 441 304 451 0 3 9 18 19 33 11 15 33 51 49 81 17 30 46
84 66 120 41 74 144 282 175 353 12 26 30 66 40 90 36 80 123 301 147 377 14
41 29 84 33 95 10 22 38 111 53 165 5 19 13 50 19 68 20 71 31 109 40 145 26
104 31 125 40 165 30 138 61 307 80 437 42 293 53 466 53 805 0 297 -7 428
-34 655 -28 240 -72 485 -120 673 -5 20 -13 55 -19 77 -5 22 -14 56 -20 75 -5
19 -15 52 -20 73 -6 20 -15 52 -20 70 -5 17 -13 43 -16 57 -4 14 -10 34 -15
45 -4 11 -14 40 -21 65 -7 25 -15 50 -19 55 -3 6 -12 28 -19 50 -21 68 -56
161 -84 225 -9 19 -25 60 -37 90 -44 113 -191 415 -262 538 -26 46 -48 86 -48
88 0 3 -13 25 -30 49 -16 24 -30 46 -30 50 0 9 -238 362 -300 445 -200 267
-301 382 -544 625 -315 315 -546 503 -924 751 -78 52 -145 94 -148 94 -3 0
-25 14 -49 30 -24 17 -46 30 -49 30 -2 0 -42 22 -88 48 -126 73 -419 215 -539
262 -30 12 -67 27 -84 35 -48 21 -166 66 -215 81 -25 8 -54 19 -65 24 -20 9
-162 54 -222 71 -18 5 -49 14 -68 19 -94 27 -113 32 -150 41 -22 6 -58 14 -80
20 -105 26 -209 48 -395 80 -123 22 -305 45 -480 61 -142 12 -744 19 -785 8z
m655 -620 c635 -44 1282 -234 1842 -541 70 -39 128 -72 128 -75 0 -4 -74 -105
-210 -284 -39 -52 -76 -97 -81 -98 -5 -2 -58 23 -117 57 -417 235 -942 394
-1471 446 -90 9 -252 15 -390 15 -601 0 -1156 -123 -1680 -371 -153 -73 -354
-190 -344 -200 4 -4 503 -10 1108 -12 759 -3 1128 -8 1190 -16 300 -39 644
-156 950 -322 147 -80 345 -209 345 -224 0 -6 -45 -76 -100 -155 -55 -80 -123
-180 -151 -222 -28 -43 -56 -78 -61 -78 -5 0 -28 13 -51 28 -84 58 -289 174
-381 217 -129 60 -306 120 -451 152 l-120 27 -1455 6 -1455 5 -3 417 -2 416
62 35 c35 19 117 67 183 107 143 85 464 247 625 314 282 118 602 218 882 276
368 75 832 106 1208 80z m3540 -1893 c18 -22 19 -91 23 -1598 5 -2010 -5
-3351 -27 -3499 -111 -758 -468 -1499 -973 -2017 -197 -202 -372 -341 -643
-511 -226 -143 -578 -304 -838 -386 -140 -44 -389 -104 -542 -131 -742 -130
-1492 -83 -2170 137 -224 73 -577 219 -594 246 -8 13 389 362 412 362 5 0 34
-14 65 -30 229 -125 734 -250 1128 -280 172 -13 531 -13 679 0 696 62 1315
306 1800 709 194 160 429 421 568 628 281 420 475 965 522 1468 11 121 15
4631 3 4748 -5 57 -9 67 -25 67 -10 0 -21 -8 -24 -17 -3 -10 -21 -50 -40 -89
-100 -210 -306 -316 -523 -270 -177 37 -298 144 -352 311 -40 123 -14 276 65
392 42 62 142 138 209 159 72 22 194 29 259 14 82 -19 186 -78 250 -142 l58
-58 0 256 0 256 346 -351 c190 -193 354 -361 364 -374z m-3970 -448 c195 -21
349 -72 511 -167 366 -216 597 -547 675 -967 29 -152 26 -415 -5 -555 -24
-112 -76 -259 -121 -351 -87 -172 -240 -348 -437 -501 -56 -45 -103 -84 -103
-87 0 -3 31 -24 68 -46 74 -44 236 -164 293 -216 472 -435 615 -1177 340
-1765 -64 -136 -165 -277 -286 -400 -194 -197 -404 -312 -690 -377 -85 -19
-128 -21 -752 -24 l-663 -4 0 300 0 301 563 0 c587 0 640 3 760 45 357 124
596 485 574 868 -14 237 -119 459 -304 645 -178 178 -418 293 -708 339 -86 14
-253 17 -1172 20 l-1073 5 -2 1171 -3 1172 -787 3 -788 2 0 300 0 300 613 3
c1201 5 3400 -4 3497 -14z m1824 -663 c97 -101 282 -349 368 -491 249 -416
402 -855 463 -1327 18 -140 37 -427 29 -439 -3 -5 -174 -9 -379 -9 l-375 0
-33 53 c-99 153 -136 217 -141 238 -3 13 -7 479 -8 1036 -3 903 -2 1010 12
1000 8 -6 37 -34 64 -61z m-6203 -373 c115 -60 209 -112 209 -118 0 -5 -23
-71 -50 -144 -119 -320 -193 -680 -221 -1081 -16 -227 -5 -695 21 -890 36
-274 126 -666 185 -807 22 -52 19 -60 -29 -88 -69 -40 -367 -176 -378 -173
-19 7 -121 313 -166 498 -98 402 -132 696 -132 1140 0 436 38 749 142 1155 50
200 190 615 206 615 3 0 99 -48 213 -107z m9227 -55 c127 -320 225 -711 273
-1078 26 -210 36 -628 20 -855 -21 -292 -94 -706 -172 -985 -82 -289 -274
-805 -304 -816 -6 -3 -80 34 -165 82 -197 109 -240 136 -240 151 0 7 24 72 54
145 233 579 346 1150 346 1745 0 481 -66 876 -226 1352 -36 107 -61 198 -57
202 4 4 89 49 188 100 99 50 184 96 190 100 23 21 36 0 93 -143z m-8046 -2930
c2 -1366 2 -2485 0 -2488 -2 -3 -31 25 -65 61 -34 37 -150 158 -257 270 -107
112 -214 225 -238 251 l-42 48 0 2163 c0 1190 3 2167 7 2170 3 4 138 7 299 7
l292 0 4 -2482z m1030 262 l248 0 2 -1162 3 -1163 1030 -3 c1080 -3 1281 2
1472 38 312 59 607 203 832 404 337 301 556 735 637 1261 18 120 22 401 7 539
-6 54 -6 79 2 82 5 2 145 3 310 2 l300 -3 -1 -210 c-5 -708 -202 -1342 -562
-1804 -143 -183 -286 -322 -462 -448 -324 -233 -655 -366 -1076 -435 l-139
-22 -1482 -3 -1483 -4 0 1464 c0 805 3 1467 8 1471 4 5 30 5 57 2 28 -3 161
-6 297 -6z"/>
<path d="M3639 7770 c-1 -3 -1 -27 -1 -55 1 -27 1 -414 1 -858 l1 -808 788 4
c773 3 789 4 887 26 335 75 596 270 730 546 74 151 90 214 89 355 -1 94 -6
132 -28 205 -85 289 -286 494 -558 567 l-83 22 -912 1 c-502 0 -913 -2 -914
-5z"/>
</g>
</svg>
